<svg width="30" height="31" viewBox="0 0 30 31" fill="none" xmlns="http://www.w3.org/2000/svg">
<path d="M30 15.2132C30 19.1914 28.4196 23.0068 25.6066 25.8198C22.7936 28.6328 18.9782 30.2132 15 30.2132C11.0218 30.2132 7.20644 28.6328 4.3934 25.8198C1.58035 23.0068 0 19.1914 0 15.2132C0 11.2349 1.58035 7.41964 4.3934 4.60659C7.20644 1.79355 11.0218 0.213196 15 0.213196C18.9782 0.213196 22.7936 1.79355 25.6066 4.60659C28.4196 7.41964 30 11.2349 30 15.2132ZM15.9375 8.6507C15.9375 8.40206 15.8387 8.1636 15.6629 7.98778C15.4871 7.81197 15.2486 7.7132 15 7.7132C14.7514 7.7132 14.5129 7.81197 14.3371 7.98778C14.1613 8.1636 14.0625 8.40206 14.0625 8.6507V14.2757H8.4375C8.18886 14.2757 7.9504 14.3745 7.77459 14.5503C7.59877 14.7261 7.5 14.9646 7.5 15.2132C7.5 15.4618 7.59877 15.7003 7.77459 15.8761C7.9504 16.0519 8.18886 16.1507 8.4375 16.1507H14.0625V21.7757C14.0625 22.0243 14.1613 22.2628 14.3371 22.4386C14.5129 22.6144 14.7514 22.7132 15 22.7132C15.2486 22.7132 15.4871 22.6144 15.6629 22.4386C15.8387 22.2628 15.9375 22.0243 15.9375 21.7757V16.1507H21.5625C21.8111 16.1507 22.0496 16.0519 22.2254 15.8761C22.4012 15.7003 22.5 15.4618 22.5 15.2132C22.5 14.9646 22.4012 14.7261 22.2254 14.5503C22.0496 14.3745 21.8111 14.2757 21.5625 14.2757H15.9375V8.6507Z" fill="white"/>
</svg>
