<svg width="23" height="23" viewBox="0 0 23 23" fill="none" xmlns="http://www.w3.org/2000/svg">
<g clip-path="url(#clip0_137_47)">
<path d="M13.2258 1.47656C12.645 -0.492188 9.855 -0.492188 9.27422 1.47656L9.13359 1.95469C9.04682 2.24943 8.89517 2.52101 8.68977 2.74952C8.48437 2.97802 8.23043 3.15766 7.94657 3.27525C7.66271 3.39284 7.35613 3.4454 7.04931 3.42908C6.7425 3.41276 6.44322 3.32797 6.17344 3.18094L5.7375 2.94188C3.93328 1.96031 1.96031 3.93328 2.94328 5.73609L3.18094 6.17344C3.80813 7.32656 3.21328 8.76234 1.95469 9.13359L1.47656 9.27422C-0.492188 9.855 -0.492188 12.645 1.47656 13.2258L1.95469 13.3664C2.24943 13.4532 2.52101 13.6048 2.74952 13.8102C2.97802 14.0156 3.15766 14.2696 3.27525 14.5534C3.39284 14.8373 3.4454 15.1439 3.42908 15.4507C3.41276 15.7575 3.32797 16.0568 3.18094 16.3266L2.94188 16.7625C1.96031 18.5667 3.93328 20.5397 5.73609 19.5567L6.17344 19.3191C6.44322 19.172 6.7425 19.0872 7.04931 19.0709C7.35613 19.0546 7.66271 19.1072 7.94657 19.2248C8.23043 19.3423 8.48437 19.522 8.68977 19.7505C8.89517 19.979 9.04682 20.2506 9.13359 20.5453L9.27422 21.0234C9.855 22.9922 12.645 22.9922 13.2258 21.0234L13.3664 20.5453C13.4532 20.2506 13.6048 19.979 13.8102 19.7505C14.0156 19.522 14.2696 19.3423 14.5534 19.2248C14.8373 19.1072 15.1439 19.0546 15.4507 19.0709C15.7575 19.0872 16.0568 19.172 16.3266 19.3191L16.7625 19.5581C18.5667 20.5397 20.5397 18.5667 19.5567 16.7639L19.3191 16.3266C19.172 16.0568 19.0872 15.7575 19.0709 15.4507C19.0546 15.1439 19.1072 14.8373 19.2248 14.5534C19.3423 14.2696 19.522 14.0156 19.7505 13.8102C19.979 13.6048 20.2506 13.4532 20.5453 13.3664L21.0234 13.2258C22.9922 12.645 22.9922 9.855 21.0234 9.27422L20.5453 9.13359C20.2506 9.04682 19.979 8.89517 19.7505 8.68977C19.522 8.48437 19.3423 8.23043 19.2248 7.94657C19.1072 7.66271 19.0546 7.35613 19.0709 7.04931C19.0872 6.7425 19.172 6.44322 19.3191 6.17344L19.5581 5.7375C20.5397 3.93328 18.5667 1.96031 16.7639 2.94328L16.3266 3.18094C16.0568 3.32797 15.7575 3.41276 15.4507 3.42908C15.1439 3.4454 14.8373 3.39284 14.5534 3.27525C14.2696 3.15766 14.0156 2.97802 13.8102 2.74952C13.6048 2.52101 13.4532 2.24943 13.3664 1.95469L13.2258 1.47656ZM11.25 15.3703C10.1572 15.3703 9.10921 14.9362 8.3365 14.1635C7.56379 13.3908 7.12969 12.3428 7.12969 11.25C7.12969 10.1572 7.56379 9.10921 8.3365 8.3365C9.10921 7.56379 10.1572 7.12969 11.25 7.12969C12.3424 7.12969 13.3901 7.56364 14.1625 8.33609C14.935 9.10853 15.3689 10.1562 15.3689 11.2486C15.3689 12.341 14.935 13.3887 14.1625 14.1611C13.3901 14.9335 12.3424 15.3675 11.25 15.3675V15.3703Z" fill="white"/>
</g>
<defs>
<clipPath id="clip0_137_47">
<rect width="22.5" height="22.5" fill="white"/>
</clipPath>
</defs>
</svg>
