<svg width="23" height="24" viewBox="0 0 23 24" fill="none" xmlns="http://www.w3.org/2000/svg">
<g clip-path="url(#clip0_127_50)">
<path d="M18.4576 0.963196H8.61389C7.86797 0.963196 7.1526 1.25951 6.62515 1.78696C6.09771 2.3144 5.80139 3.02977 5.80139 3.7757C5.05547 3.7757 4.3401 4.07201 3.81265 4.59946C3.28521 5.1269 2.98889 5.84227 2.98889 6.5882V20.6507C2.98889 21.3966 3.28521 22.112 3.81265 22.6394C4.3401 23.1669 5.05547 23.4632 5.80139 23.4632H15.6451C16.3911 23.4632 17.1064 23.1669 17.6339 22.6394C18.1613 22.112 18.4576 21.3966 18.4576 20.6507C19.2036 20.6507 19.9189 20.3544 20.4464 19.8269C20.9738 19.2995 21.2701 18.5841 21.2701 17.8382V3.7757C21.2701 3.02977 20.9738 2.3144 20.4464 1.78696C19.9189 1.25951 19.2036 0.963196 18.4576 0.963196ZM18.4576 19.2444V6.5882C18.4576 5.84227 18.1613 5.1269 17.6339 4.59946C17.1064 4.07201 16.3911 3.7757 15.6451 3.7757H7.20764C7.20764 3.40273 7.3558 3.04505 7.61952 2.78133C7.88325 2.5176 8.24093 2.36945 8.61389 2.36945H18.4576C18.8306 2.36945 19.1883 2.5176 19.452 2.78133C19.7157 3.04505 19.8639 3.40273 19.8639 3.7757V17.8382C19.8639 18.2112 19.7157 18.5688 19.452 18.8326C19.1883 19.0963 18.8306 19.2444 18.4576 19.2444ZM4.39514 6.5882C4.39514 6.21524 4.5433 5.85755 4.80702 5.59383C5.07075 5.3301 5.42843 5.18195 5.80139 5.18195H15.6451C16.0181 5.18195 16.3758 5.3301 16.6395 5.59383C16.9032 5.85755 17.0514 6.21524 17.0514 6.5882V20.6507C17.0514 21.0237 16.9032 21.3813 16.6395 21.6451C16.3758 21.9088 16.0181 22.0569 15.6451 22.0569H5.80139C5.42843 22.0569 5.07075 21.9088 4.80702 21.6451C4.5433 21.3813 4.39514 21.0237 4.39514 20.6507V6.5882Z" fill="white"/>
</g>
<defs>
<clipPath id="clip0_127_50">
<rect width="22.5" height="22.5" fill="white" transform="translate(0.176392 0.963196)"/>
</clipPath>
</defs>
</svg>
