<svg width="18" height="18" viewBox="0 0 18 18" fill="none" xmlns="http://www.w3.org/2000/svg">
<path d="M2.21875 17.6875C2.21875 17.6875 0.8125 17.6875 0.8125 16.2812C0.8125 14.875 2.21875 10.6562 9.25 10.6562C16.2812 10.6562 17.6875 14.875 17.6875 16.2812C17.6875 17.6875 16.2812 17.6875 16.2812 17.6875H2.21875ZM9.25 9.25C10.3689 9.25 11.4419 8.80553 12.2331 8.01436C13.0243 7.22319 13.4688 6.15013 13.4688 5.03125C13.4688 3.91237 13.0243 2.83931 12.2331 2.04814C11.4419 1.25697 10.3689 0.8125 9.25 0.8125C8.13112 0.8125 7.05806 1.25697 6.26689 2.04814C5.47572 2.83931 5.03125 3.91237 5.03125 5.03125C5.03125 6.15013 5.47572 7.22319 6.26689 8.01436C7.05806 8.80553 8.13112 9.25 9.25 9.25Z" fill="#FFFEFE"/>
</svg>
