<svg width="31" height="31" viewBox="0 0 31 31" fill="none" xmlns="http://www.w3.org/2000/svg">
<g clip-path="url(#clip0_127_46)">
<path fill-rule="evenodd" clip-rule="evenodd" d="M15.4264 28.3382C15.1777 28.3382 14.9393 28.2394 14.7634 28.0636C14.5876 27.8878 14.4889 27.6493 14.4889 27.4007L14.4889 3.0257C14.4889 2.77706 14.5876 2.5386 14.7634 2.36278C14.9393 2.18697 15.1777 2.0882 15.4264 2.0882C15.675 2.0882 15.9135 2.18697 16.0893 2.36278C16.2651 2.5386 16.3639 2.77706 16.3639 3.0257V27.4007C16.3639 27.6493 16.2651 27.8878 16.0893 28.0636C15.9135 28.2394 15.675 28.3382 15.4264 28.3382ZM0.700108 15.8769C0.612802 15.7899 0.543535 15.6864 0.496272 15.5725C0.44901 15.4586 0.424683 15.3365 0.424683 15.2132C0.424683 15.0899 0.44901 14.9678 0.496272 14.8539C0.543535 14.74 0.612802 14.6365 0.700108 14.5494L4.45011 10.7994C4.53727 10.7123 4.64075 10.6431 4.75464 10.596C4.86853 10.5488 4.99059 10.5245 5.11386 10.5245C5.23713 10.5245 5.35919 10.5488 5.47308 10.596C5.58696 10.6431 5.69044 10.7123 5.77761 10.7994C5.86477 10.8866 5.93392 10.9901 5.98109 11.104C6.02826 11.2179 6.05254 11.3399 6.05254 11.4632C6.05254 11.5865 6.02826 11.7085 5.98109 11.8224C5.93392 11.9363 5.86477 12.0398 5.77761 12.1269L3.62698 14.2757H10.7389C10.9875 14.2757 11.226 14.3745 11.4018 14.5503C11.5776 14.7261 11.6764 14.9646 11.6764 15.2132C11.6764 15.4618 11.5776 15.7003 11.4018 15.8761C11.226 16.0519 10.9875 16.1507 10.7389 16.1507H3.62698L5.77761 18.2994C5.95365 18.4755 6.05254 18.7142 6.05254 18.9632C6.05254 19.2122 5.95365 19.4509 5.77761 19.6269C5.60157 19.803 5.36281 19.9019 5.11386 19.9019C4.8649 19.9019 4.62615 19.803 4.45011 19.6269L0.700108 15.8769ZM19.1764 15.2132C19.1764 14.9646 19.2751 14.7261 19.4509 14.5503C19.6268 14.3745 19.8652 14.2757 20.1139 14.2757H27.2257L25.0751 12.1269C24.8991 11.9509 24.8002 11.7122 24.8002 11.4632C24.8002 11.2142 24.8991 10.9755 25.0751 10.7994C25.2511 10.6234 25.4899 10.5245 25.7389 10.5245C25.9878 10.5245 26.2266 10.6234 26.4026 10.7994L30.1526 14.5494C30.2399 14.6365 30.3092 14.74 30.3564 14.8539C30.4037 14.9678 30.428 15.0899 30.428 15.2132C30.428 15.3365 30.4037 15.4586 30.3564 15.5725C30.3092 15.6864 30.2399 15.7899 30.1526 15.8769L26.4026 19.6269C26.3154 19.7141 26.212 19.7833 26.0981 19.8304C25.9842 19.8776 25.8621 19.9019 25.7389 19.9019C25.6156 19.9019 25.4935 19.8776 25.3796 19.8304C25.2658 19.7833 25.1623 19.7141 25.0751 19.6269C24.8991 19.4509 24.8002 19.2122 24.8002 18.9632C24.8002 18.8399 24.8245 18.7179 24.8716 18.604C24.9188 18.4901 24.9879 18.3866 25.0751 18.2994L27.2257 16.1507H20.1139C19.8652 16.1507 19.6268 16.0519 19.4509 15.8761C19.2751 15.7003 19.1764 15.4618 19.1764 15.2132Z" fill="white"/>
</g>
<defs>
<clipPath id="clip0_127_46">
<rect width="30" height="30" fill="white" transform="matrix(0 -1 1 0 0.426392 30.2132)"/>
</clipPath>
</defs>
</svg>
