<svg width="29" height="29" viewBox="0 0 29 29" fill="none" xmlns="http://www.w3.org/2000/svg">
<path fill-rule="evenodd" clip-rule="evenodd" d="M14.2132 18.0648C14.0469 18.0648 13.8875 18.1309 13.7699 18.2485C13.6524 18.366 13.5863 18.5254 13.5863 18.6917V25.9552L11.1321 23.5009C11.0145 23.3833 10.855 23.3173 10.6887 23.3173C10.5224 23.3173 10.363 23.3833 10.2454 23.5009C10.1278 23.6185 10.0618 23.7779 10.0618 23.9442C10.0618 24.1105 10.1278 24.27 10.2454 24.3876L13.7699 27.912C13.8874 28.0296 14.0469 28.0956 14.2132 28.0956C14.3795 28.0956 14.5389 28.0296 14.6565 27.912L18.181 24.3876C18.2985 24.27 18.3646 24.1105 18.3646 23.9442C18.3646 23.7779 18.2985 23.6185 18.181 23.5009C18.0634 23.3833 17.9039 23.3173 17.7376 23.3173C17.5714 23.3173 17.4119 23.3833 17.2943 23.5009L14.84 25.9552L14.84 18.6917C14.84 18.5254 14.774 18.366 14.6564 18.2485C14.5389 18.1309 14.3794 18.0648 14.2132 18.0648ZM18.0648 14.2132C18.0648 14.0469 18.1309 13.8875 18.2484 13.77C18.366 13.6524 18.5254 13.5864 18.6917 13.5863L25.9551 13.5863L23.5009 11.1321C23.3833 11.0145 23.3173 10.855 23.3173 10.6887C23.3173 10.5225 23.3833 10.363 23.5009 10.2454C23.6185 10.1278 23.7779 10.0618 23.9442 10.0618C24.1105 10.0618 24.27 10.1278 24.3875 10.2454L27.912 13.7699C28.0296 13.8874 28.0956 14.0469 28.0956 14.2132C28.0956 14.3795 28.0296 14.5389 27.912 14.6565L24.3875 18.181C24.27 18.2986 24.1105 18.3646 23.9442 18.3646C23.7779 18.3646 23.6185 18.2986 23.5009 18.181C23.3833 18.0634 23.3173 17.9039 23.3173 17.7376C23.3173 17.5714 23.3833 17.4119 23.5009 17.2943L25.9551 14.8401L18.6917 14.8401C18.5254 14.84 18.366 14.774 18.2484 14.6564C18.1309 14.5389 18.0648 14.3794 18.0648 14.2132ZM14.2132 10.3616C14.3794 10.3615 14.5389 10.2955 14.6564 10.1779C14.774 10.0604 14.84 9.90095 14.84 9.73471L14.84 2.47123L17.2943 4.92549C17.4119 5.04307 17.5714 5.10912 17.7376 5.10912C17.9039 5.10912 18.0634 5.04307 18.181 4.92549C18.2985 4.80791 18.3646 4.64845 18.3646 4.48217C18.3646 4.31589 18.2985 4.15642 18.181 4.03884L14.6565 0.514388C14.5389 0.39681 14.3795 0.330756 14.2132 0.330756C14.0469 0.330756 13.8874 0.39681 13.7699 0.514388L10.2454 4.03884C10.1278 4.15642 10.0618 4.31589 10.0618 4.48217C10.0618 4.64845 10.1278 4.80792 10.2454 4.92549C10.363 5.04307 10.5224 5.10913 10.6887 5.10913C10.855 5.10913 11.0145 5.04307 11.1321 4.92549L13.5863 2.47123V9.7347C13.5863 9.90095 13.6524 10.0604 13.7699 10.1779C13.8875 10.2955 14.0469 10.3615 14.2132 10.3616ZM10.3616 14.2132C10.3615 14.3794 10.2955 14.5389 10.1779 14.6564C10.0604 14.774 9.90094 14.84 9.73469 14.8401L2.47122 14.8401L4.92548 17.2943C5.04305 17.4119 5.10911 17.5714 5.10911 17.7376C5.10911 17.9039 5.04305 18.0634 4.92548 18.181C4.8079 18.2986 4.64843 18.3646 4.48215 18.3646C4.31587 18.3646 4.1564 18.2986 4.03882 18.181L0.514372 14.6565C0.396794 14.5389 0.33074 14.3795 0.33074 14.2132C0.33074 14.0469 0.396794 13.8874 0.514372 13.7699L4.03882 10.2454C4.1564 10.1278 4.31587 10.0618 4.48215 10.0618C4.64843 10.0618 4.8079 10.1278 4.92548 10.2454C5.04305 10.363 5.10911 10.5225 5.10911 10.6887C5.10911 10.855 5.04305 11.0145 4.92548 11.1321L2.47122 13.5863L9.73469 13.5863C9.90094 13.5864 10.0604 13.6524 10.1779 13.77C10.2955 13.8875 10.3615 14.0469 10.3616 14.2132Z" fill="white"/>
</svg>
