<svg width="23" height="23" viewBox="0 0 23 23" fill="none" xmlns="http://www.w3.org/2000/svg">
<g clip-path="url(#clip0_139_51)">
<path d="M9.49217 1.40625C9.77189 1.40625 10.0402 1.51737 10.238 1.71516C10.4357 1.91295 10.5469 2.18122 10.5469 2.46094V11.25C10.5469 11.4365 10.6209 11.6153 10.7528 11.7472C10.8847 11.879 11.0635 11.9531 11.25 11.9531C11.4365 11.9531 11.6153 11.879 11.7472 11.7472C11.879 11.6153 11.9531 11.4365 11.9531 11.25V7.68797L12.074 7.68234C12.5198 7.66547 12.9698 7.67109 13.2215 7.72031C13.41 7.75828 13.635 7.85531 13.8515 7.97625C13.9598 8.03531 14.0625 8.18297 14.0625 8.41781V11.25C14.0625 11.4365 14.1366 11.6153 14.2684 11.7472C14.4003 11.879 14.5791 11.9531 14.7656 11.9531C14.9521 11.9531 15.1309 11.879 15.2628 11.7472C15.3947 11.6153 15.4687 11.4365 15.4687 11.25V9.04922L15.6178 9.03516C16.0622 9.00141 16.439 9.02109 16.6134 9.09141C16.7794 9.15609 17.0353 9.3825 17.2969 9.69609C17.4108 9.83109 17.5078 9.96328 17.5781 10.0603V11.9531C17.5781 12.1396 17.6522 12.3184 17.7841 12.4503C17.9159 12.5822 18.0948 12.6562 18.2812 12.6562C18.4677 12.6562 18.6466 12.5822 18.7784 12.4503C18.9103 12.3184 18.9844 12.1396 18.9844 11.9531V10.5469H19.4653C19.6618 10.5469 19.8562 10.5881 20.0358 10.6678C20.2154 10.7475 20.3764 10.864 20.5082 11.0098C20.6401 11.1555 20.7399 11.3273 20.8012 11.514C20.8626 11.7007 20.8842 11.8982 20.8645 12.0938L20.4834 15.9117C20.4342 16.4024 20.2823 16.8772 20.0376 17.3053L18.0759 20.7394C18.0145 20.847 17.9256 20.9364 17.8184 20.9987C17.7113 21.0609 17.5895 21.0937 17.4656 21.0938H8.60342C8.47295 21.0937 8.34506 21.0574 8.23404 20.9889C8.12303 20.9204 8.03328 20.8223 7.97483 20.7056L6.24233 17.2392L2.70983 11.3541C2.61907 11.2019 2.587 11.0218 2.61964 10.8477C2.65228 10.6736 2.74739 10.5173 2.88709 10.4084C3.02679 10.2994 3.20148 10.2452 3.37832 10.2559C3.55517 10.2667 3.722 10.3416 3.84749 10.4667L7.23655 13.8558C7.3348 13.9543 7.46007 14.0214 7.5965 14.0487C7.73293 14.076 7.87438 14.0622 8.00296 14.009C8.13153 13.9559 8.24145 13.8658 8.3188 13.7501C8.39615 13.6345 8.43746 13.4985 8.43749 13.3594V2.46094C8.43749 2.18122 8.5486 1.91295 8.7464 1.71516C8.94419 1.51737 9.21245 1.40625 9.49217 1.40625ZM11.9531 6.28031V2.46094C11.9531 1.80826 11.6938 1.18231 11.2323 0.720792C10.7708 0.259277 10.1449 0 9.49217 0C8.83949 0 8.21354 0.259277 7.75203 0.720792C7.29051 1.18231 7.03124 1.80826 7.03124 2.46094V11.662L4.8417 9.4725C4.47331 9.10614 3.98388 8.88681 3.46527 8.85567C2.94665 8.82453 2.43449 8.98373 2.02492 9.30338C1.61534 9.62304 1.33649 10.0812 1.2407 10.5918C1.14492 11.1025 1.23878 11.6305 1.50467 12.0769L5.00764 17.917L6.71624 21.3342C6.8915 21.6846 7.16089 21.9793 7.49422 22.1852C7.82754 22.3911 8.21163 22.5001 8.60342 22.5H17.4656C17.8374 22.4999 18.2026 22.4015 18.5241 22.2148C18.8457 22.0281 19.1121 21.7597 19.2965 21.4369L21.2583 18.0042C21.6012 17.4042 21.814 16.7386 21.8826 16.0509L22.2637 12.233C22.3028 11.842 22.2596 11.4471 22.1367 11.0739C22.0139 10.7007 21.8142 10.3573 21.5506 10.066C21.2869 9.77461 20.9651 9.54174 20.606 9.38237C20.2468 9.22299 19.8582 9.14064 19.4653 9.14062H18.6483C18.5606 9.02152 18.4691 8.90521 18.374 8.79187C18.1055 8.46984 17.6569 7.99312 17.1365 7.785C16.6247 7.57969 15.9469 7.59937 15.5081 7.63312L15.3225 7.65C15.1728 7.26676 14.8943 6.94756 14.535 6.74719C14.2118 6.55997 13.8618 6.42338 13.4972 6.34219C13.0612 6.255 12.458 6.26063 12.0206 6.2775L11.9531 6.28031Z" fill="white"/>
</g>
<defs>
<clipPath id="clip0_139_51">
<rect width="22.5" height="22.5" fill="white"/>
</clipPath>
</defs>
</svg>
