<svg width="26" height="20" viewBox="0 0 26 20" fill="none" xmlns="http://www.w3.org/2000/svg">
<path d="M15.6288 2.39936C15.5873 2.38113 15.542 2.3736 15.4969 2.37746C15.4518 2.38133 15.4084 2.39646 15.3707 2.42148C15.333 2.4465 15.3022 2.48059 15.2811 2.52063C15.26 2.56066 15.2493 2.60536 15.25 2.65061V4.81248C15.25 5.06113 15.1512 5.29958 14.9754 5.4754C14.7996 5.65121 14.5612 5.74998 14.3125 5.74998C13.0619 5.74998 10.5381 5.75936 8.12501 7.29123C6.28001 8.46124 4.39376 10.5912 3.25939 14.5587C5.17189 12.7156 7.35626 11.7162 9.26876 11.1856C10.4442 10.8603 11.6523 10.6679 12.8706 10.6119C13.3693 10.5884 13.8688 10.5934 14.3669 10.6269H14.3913L14.4006 10.6287L14.3125 11.5625L14.4063 10.6287C14.6377 10.652 14.8522 10.7604 15.0081 10.933C15.164 11.1056 15.2502 11.3299 15.25 11.5625V13.7244C15.25 13.9269 15.4563 14.0544 15.6288 13.9756L23.0988 8.47623L23.1775 8.42373C23.2183 8.39923 23.252 8.3646 23.2754 8.3232C23.2989 8.2818 23.3112 8.23505 23.3112 8.18748C23.3112 8.13992 23.2989 8.09316 23.2754 8.05176C23.252 8.01037 23.2183 7.97573 23.1775 7.95123L23.0988 7.89873L15.6288 2.39936ZM13.375 12.4737C13.2463 12.4737 13.1069 12.4775 12.9569 12.485C12.1431 12.5225 11.0181 12.6462 9.76939 12.9931C7.28314 13.6831 4.33939 15.2469 2.38189 18.7681C2.27603 18.9582 2.10736 19.1055 1.90478 19.1849C1.70221 19.2642 1.47834 19.2707 1.27154 19.2031C1.06475 19.1355 0.887902 18.998 0.771315 18.8143C0.654727 18.6307 0.605658 18.4121 0.632515 18.1962C1.50251 11.24 4.16876 7.57998 7.12001 5.70873C9.45439 4.22748 11.8581 3.94248 13.375 3.88811V2.65061C13.3748 2.26449 13.4789 1.88548 13.6762 1.55357C13.8735 1.22167 14.1567 0.949174 14.496 0.764844C14.8353 0.580514 15.218 0.491184 15.6039 0.506279C15.9897 0.521374 16.3643 0.640335 16.6881 0.850609L24.1769 6.36311C24.4865 6.55636 24.7418 6.82523 24.9188 7.14439C25.0958 7.46356 25.1887 7.82252 25.1887 8.18748C25.1887 8.55245 25.0958 8.91141 24.9188 9.23057C24.7418 9.54974 24.4865 9.8186 24.1769 10.0119L16.6881 15.5244C16.3643 15.7346 15.9897 15.8536 15.6039 15.8687C15.218 15.8838 14.8353 15.7945 14.496 15.6101C14.1567 15.4258 13.8735 15.1533 13.6762 14.8214C13.4789 14.4895 13.3748 14.1105 13.375 13.7244V12.4737Z" fill="white"/>
</svg>
