<svg width="23" height="24" viewBox="0 0 23 24" fill="none" xmlns="http://www.w3.org/2000/svg">
<g clip-path="url(#clip0_127_54)">
<path d="M7.91077 8.69757C8.09725 8.69757 8.27609 8.77165 8.40795 8.90351C8.53981 9.03537 8.61389 9.21422 8.61389 9.4007V17.8382C8.61389 18.0247 8.53981 18.2035 8.40795 18.3354C8.27609 18.4672 8.09725 18.5413 7.91077 18.5413C7.72429 18.5413 7.54544 18.4672 7.41358 18.3354C7.28172 18.2035 7.20764 18.0247 7.20764 17.8382V9.4007C7.20764 9.21422 7.28172 9.03537 7.41358 8.90351C7.54544 8.77165 7.72429 8.69757 7.91077 8.69757ZM11.4264 8.69757C11.6129 8.69757 11.7917 8.77165 11.9236 8.90351C12.0554 9.03537 12.1295 9.21422 12.1295 9.4007V17.8382C12.1295 18.0247 12.0554 18.2035 11.9236 18.3354C11.7917 18.4672 11.6129 18.5413 11.4264 18.5413C11.2399 18.5413 11.0611 18.4672 10.9292 18.3354C10.7973 18.2035 10.7233 18.0247 10.7233 17.8382V9.4007C10.7233 9.21422 10.7973 9.03537 10.9292 8.90351C11.0611 8.77165 11.2399 8.69757 11.4264 8.69757ZM15.6451 9.4007C15.6451 9.21422 15.5711 9.03537 15.4392 8.90351C15.3073 8.77165 15.1285 8.69757 14.942 8.69757C14.7555 8.69757 14.5767 8.77165 14.4448 8.90351C14.313 9.03537 14.2389 9.21422 14.2389 9.4007V17.8382C14.2389 18.0247 14.313 18.2035 14.4448 18.3354C14.5767 18.4672 14.7555 18.5413 14.942 18.5413C15.1285 18.5413 15.3073 18.4672 15.4392 18.3354C15.5711 18.2035 15.6451 18.0247 15.6451 17.8382V9.4007Z" fill="white"/>
<path d="M20.567 5.18195C20.567 5.55491 20.4189 5.91259 20.1551 6.17631C19.8914 6.44004 19.5337 6.5882 19.1608 6.5882H18.4576V19.2444C18.4576 19.9904 18.1613 20.7057 17.6339 21.2332C17.1064 21.7606 16.3911 22.0569 15.6451 22.0569H7.20764C6.46172 22.0569 5.74635 21.7606 5.2189 21.2332C4.69146 20.7057 4.39514 19.9904 4.39514 19.2444V6.5882H3.69202C3.31906 6.5882 2.96137 6.44004 2.69765 6.17631C2.43392 5.91259 2.28577 5.55491 2.28577 5.18195V3.7757C2.28577 3.40273 2.43392 3.04505 2.69765 2.78133C2.96137 2.5176 3.31906 2.36945 3.69202 2.36945H8.61389C8.61389 1.99649 8.76205 1.6388 9.02577 1.37508C9.2895 1.11135 9.64718 0.963196 10.0201 0.963196L12.8326 0.963196C13.2056 0.963196 13.5633 1.11135 13.827 1.37508C14.0907 1.6388 14.2389 1.99649 14.2389 2.36945H19.1608C19.5337 2.36945 19.8914 2.5176 20.1551 2.78133C20.4189 3.04505 20.567 3.40273 20.567 3.7757V5.18195ZM5.96733 6.5882L5.80139 6.67116V19.2444C5.80139 19.6174 5.94955 19.9751 6.21327 20.2388C6.477 20.5025 6.83468 20.6507 7.20764 20.6507H15.6451C16.0181 20.6507 16.3758 20.5025 16.6395 20.2388C16.9032 19.9751 17.0514 19.6174 17.0514 19.2444V6.67116L16.8855 6.5882H5.96733ZM3.69202 5.18195H19.1608V3.7757H3.69202V5.18195Z" fill="white"/>
</g>
<defs>
<clipPath id="clip0_127_54">
<rect width="22.5" height="22.5" fill="white" transform="translate(0.176392 0.963196)"/>
</clipPath>
</defs>
</svg>
