<svg width="31" height="31" viewBox="0 0 31 31" fill="none" xmlns="http://www.w3.org/2000/svg">
<g clip-path="url(#clip0_127_41)">
<path fill-rule="evenodd" clip-rule="evenodd" d="M15.4264 5.8382C13.4002 5.83898 11.4288 6.49619 9.80745 7.71139C8.18609 8.9266 7.00207 10.6344 6.43274 12.579C5.86341 14.5235 5.9394 16.6002 6.64935 18.498C7.35929 20.3958 8.66496 22.0124 10.3708 23.1059C12.0766 24.1993 14.0908 24.7107 16.1117 24.5634C18.1325 24.4161 20.0512 23.618 21.5805 22.2887C23.1097 20.9594 24.1671 19.1705 24.5943 17.1898C25.0215 15.2092 24.7955 13.1434 23.9502 11.3019C23.8582 11.0781 23.8563 10.8273 23.945 10.6021C24.0337 10.3768 24.2061 10.1947 24.4261 10.0936C24.646 9.99261 24.8965 9.98059 25.1252 10.0601C25.3538 10.1396 25.5428 10.3044 25.6527 10.5201C26.667 12.7299 26.9381 15.2089 26.4253 17.5858C25.9125 19.9626 24.6434 22.1094 22.8082 23.7044C20.9729 25.2995 18.6703 26.257 16.2451 26.4335C13.82 26.61 11.403 25.9961 9.35606 24.6837C7.30915 23.3712 5.74255 21.4309 4.89092 19.1534C4.0393 16.8759 3.9485 14.3837 4.63212 12.0503C5.31574 9.71682 6.73699 7.66766 8.68296 6.20973C10.6289 4.75181 12.9949 3.96361 15.4264 3.9632V5.8382Z" fill="white"/>
<path d="M15.4264 8.58695V1.21445C15.4264 1.12539 15.4518 1.03817 15.4996 0.963019C15.5475 0.887869 15.6157 0.827896 15.6963 0.790122C15.777 0.752348 15.8668 0.738338 15.9551 0.749731C16.0434 0.761125 16.1267 0.79745 16.1951 0.854455L20.6201 4.5407C20.8451 4.7282 20.8451 5.0732 20.6201 5.2607L16.1951 8.94695C16.1267 9.00396 16.0434 9.04028 15.9551 9.05168C15.8668 9.06307 15.777 9.04906 15.6963 9.01129C15.6157 8.97351 15.5475 8.91354 15.4996 8.83839C15.4518 8.76324 15.4264 8.67602 15.4264 8.58695Z" fill="white"/>
</g>
<defs>
<clipPath id="clip0_127_41">
<rect width="30" height="30" fill="white" transform="translate(0.426392 0.213196)"/>
</clipPath>
</defs>
</svg>
