<svg width="30" height="30" viewBox="0 0 30 30" fill="none" xmlns="http://www.w3.org/2000/svg">
<path fill-rule="evenodd" clip-rule="evenodd" d="M14.3362 9.64875C14.4233 9.56144 14.5268 9.49217 14.6407 9.44491C14.7545 9.39765 14.8766 9.37332 15 9.37332C15.1233 9.37332 15.2454 9.39765 15.3593 9.44491C15.4732 9.49217 15.5766 9.56144 15.6637 9.64875L19.4137 13.3987C19.5009 13.4859 19.57 13.5894 19.6172 13.7033C19.6644 13.8172 19.6886 13.9392 19.6886 14.0625C19.6886 14.1858 19.6644 14.3078 19.6172 14.4217C19.57 14.5356 19.5009 14.6391 19.4137 14.7262C19.3265 14.8134 19.2231 14.8826 19.1092 14.9297C18.9953 14.9769 18.8732 15.0012 18.75 15.0012C18.6267 15.0012 18.5046 14.9769 18.3907 14.9297C18.2769 14.8826 18.1734 14.8134 18.0862 14.7262L15.9375 12.5756V19.6875C15.9375 19.9361 15.8387 20.1746 15.6629 20.3504C15.4871 20.5262 15.2486 20.625 15 20.625C14.7513 20.625 14.5129 20.5262 14.3371 20.3504C14.1612 20.1746 14.0625 19.9361 14.0625 19.6875V12.5756L11.9137 14.7262C11.7377 14.9023 11.4989 15.0012 11.25 15.0012C11.001 15.0012 10.7623 14.9023 10.5862 14.7262C10.4102 14.5502 10.3113 14.3115 10.3113 14.0625C10.3113 13.8135 10.4102 13.5748 10.5862 13.3987L14.3362 9.64875Z" fill="white"/>
<path d="M8.26125 6.26625C10.1353 4.65025 12.5255 3.75776 15 3.75C20.0438 3.75 24.2306 7.5 24.6863 12.3356C27.6713 12.7575 30 15.2569 30 18.3244C30 21.6919 27.1912 24.375 23.7881 24.375H7.08938C3.2025 24.375 0 21.3113 0 17.4712C0 14.1656 2.37375 11.4281 5.51625 10.7344C5.78437 9.11625 6.825 7.50375 8.26125 6.26625ZM9.48563 7.68563C8.06625 8.91 7.32375 10.3856 7.32375 11.5406V12.3806L6.48938 12.4725C3.87 12.7594 1.875 14.91 1.875 17.4712C1.875 20.2219 4.18125 22.5 7.08938 22.5H23.7881C26.2125 22.5 28.125 20.6025 28.125 18.3244C28.125 16.0444 26.2125 14.1469 23.7881 14.1469H22.8506V13.2094C22.8525 9.04688 19.365 5.625 15 5.625C12.9748 5.63309 11.0191 6.36269 9.48563 7.68563Z" fill="white"/>
</svg>
