<svg width="23" height="23" viewBox="0 0 23 23" fill="none" xmlns="http://www.w3.org/2000/svg">
<g clip-path="url(#clip0_134_26)">
<path d="M7.03125 2.8125V0H0V7.03125H2.8125V15.4688H0V22.5H7.03125V19.6875H15.4688V22.5H22.5V15.4688H19.6875V7.03125H22.5V0H15.4688V2.8125H7.03125ZM15.4688 4.21875V7.03125H18.2812V15.4688H15.4688V18.2812H7.03125V15.4688H4.21875V7.03125H7.03125V4.21875H15.4688ZM16.875 1.40625H21.0938V5.625H16.875V1.40625ZM21.0938 16.875V21.0938H16.875V16.875H21.0938ZM5.625 21.0938H1.40625V16.875H5.625V21.0938ZM1.40625 5.625V1.40625H5.625V5.625H1.40625Z" fill="white"/>
</g>
<defs>
<clipPath id="clip0_134_26">
<rect width="22.5" height="22.5" fill="white"/>
</clipPath>
</defs>
</svg>
