<svg width="26" height="20" viewBox="0 0 26 20" fill="none" xmlns="http://www.w3.org/2000/svg">
<path d="M10.3712 2.39936C10.4127 2.38113 10.458 2.3736 10.5031 2.37746C10.5482 2.38133 10.5916 2.39646 10.6293 2.42148C10.667 2.4465 10.6978 2.48059 10.7189 2.52063C10.74 2.56066 10.7507 2.60536 10.75 2.65061V4.81248C10.75 5.06113 10.8488 5.29958 11.0246 5.4754C11.2004 5.65121 11.4388 5.74998 11.6875 5.74998C12.9381 5.74998 15.4619 5.75936 17.875 7.29123C19.72 8.46124 21.6062 10.5912 22.7406 14.5587C20.8281 12.7156 18.6437 11.7162 16.7312 11.1856C15.5558 10.8603 14.3477 10.6679 13.1294 10.6119C12.6307 10.5884 12.1312 10.5934 11.6331 10.6269H11.6087L11.5994 10.6287L11.6875 11.5625L11.5937 10.6287C11.3623 10.652 11.1478 10.7604 10.9919 10.933C10.836 11.1056 10.7498 11.3299 10.75 11.5625V13.7244C10.75 13.9269 10.5437 14.0544 10.3712 13.9756L2.90124 8.47623L2.82249 8.42373C2.78172 8.39923 2.74798 8.3646 2.72456 8.3232C2.70114 8.2818 2.68883 8.23505 2.68883 8.18748C2.68883 8.13992 2.70114 8.09316 2.72456 8.05176C2.74798 8.01037 2.78172 7.97573 2.82249 7.95123L2.90124 7.89873L10.3712 2.39936ZM12.625 12.4737C12.7537 12.4737 12.8931 12.4775 13.0431 12.485C13.8569 12.5225 14.9819 12.6462 16.2306 12.9931C18.7169 13.6831 21.6606 15.2469 23.6181 18.7681C23.724 18.9582 23.8926 19.1055 24.0952 19.1849C24.2978 19.2642 24.5217 19.2707 24.7285 19.2031C24.9353 19.1355 25.1121 18.998 25.2287 18.8143C25.3453 18.6307 25.3943 18.4121 25.3675 18.1962C24.4975 11.24 21.8312 7.57998 18.88 5.70873C16.5456 4.22748 14.1419 3.94248 12.625 3.88811V2.65061C12.6252 2.26449 12.5211 1.88548 12.3238 1.55357C12.1265 1.22167 11.8433 0.949174 11.504 0.764844C11.1647 0.580514 10.782 0.491184 10.3961 0.506279C10.0103 0.521374 9.63571 0.640335 9.31186 0.850609L1.82311 6.36311C1.51351 6.55636 1.25819 6.82523 1.08117 7.14439C0.904158 7.46356 0.811279 7.82252 0.811279 8.18748C0.811279 8.55245 0.904158 8.91141 1.08117 9.23057C1.25819 9.54974 1.51351 9.8186 1.82311 10.0119L9.31186 15.5244C9.63571 15.7346 10.0103 15.8536 10.3961 15.8687C10.782 15.8838 11.1647 15.7945 11.504 15.6101C11.8433 15.4258 12.1265 15.1533 12.3238 14.8214C12.5211 14.4895 12.6252 14.1105 12.625 13.7244V12.4737Z" fill="white"/>
</svg>
