<svg width="25" height="25" viewBox="0 0 25 25" fill="none" xmlns="http://www.w3.org/2000/svg">
<g clip-path="url(#clip0_127_87)">
<path d="M1.5625 3.05176e-05C1.1481 3.05176e-05 0.750671 0.164651 0.457646 0.457676C0.16462 0.750702 0 1.14813 0 1.56253L0 23.4375C0 23.8519 0.16462 24.2494 0.457646 24.5424C0.750671 24.8354 1.1481 25 1.5625 25H9.375V23.4375H3.125V21.875H9.375V20.3125H6.25V18.75H9.375V17.1875H3.125V15.625H9.375V14.0625H6.25V12.5H9.375V10.9375H3.125V9.37503H9.375V3.12503H10.9375V9.37503H12.5V6.25003H14.0625V9.37503H15.625V3.12503H17.1875V9.37503H18.75V6.25003H20.3125V9.37503H21.875V3.12503H23.4375V9.37503H25V1.56253C25 1.14813 24.8354 0.750702 24.5424 0.457676C24.2493 0.164651 23.8519 3.05176e-05 23.4375 3.05176e-05L1.5625 3.05176e-05Z" fill="white"/>
</g>
<defs>
<clipPath id="clip0_127_87">
<rect width="25" height="25" fill="white"/>
</clipPath>
</defs>
</svg>
