<svg width="23" height="23" viewBox="0 0 23 23" fill="none" xmlns="http://www.w3.org/2000/svg">
<g clip-path="url(#clip0_139_57)">
<path fill-rule="evenodd" clip-rule="evenodd" d="M9.14062 16.875C10.1563 16.875 11.1621 16.6749 12.1004 16.2863C13.0388 15.8976 13.8915 15.3279 14.6097 14.6097C15.3279 13.8915 15.8976 13.0388 16.2863 12.1004C16.6749 11.1621 16.875 10.1563 16.875 9.14062C16.875 8.12493 16.6749 7.11919 16.2863 6.18081C15.8976 5.24243 15.3279 4.3898 14.6097 3.6716C13.8915 2.95339 13.0388 2.38368 12.1004 1.99499C11.1621 1.60631 10.1563 1.40625 9.14062 1.40625C7.08934 1.40625 5.12207 2.22112 3.6716 3.6716C2.22112 5.12207 1.40625 7.08934 1.40625 9.14062C1.40625 11.1919 2.22112 13.1592 3.6716 14.6097C5.12207 16.0601 7.08934 16.875 9.14062 16.875ZM18.2812 9.14062C18.2812 11.5649 17.3182 13.8898 15.604 15.604C13.8898 17.3182 11.5649 18.2812 9.14062 18.2812C6.71638 18.2812 4.39143 17.3182 2.67723 15.604C0.963027 13.8898 0 11.5649 0 9.14062C0 6.71638 0.963027 4.39143 2.67723 2.67723C4.39143 0.963027 6.71638 0 9.14062 0C11.5649 0 13.8898 0.963027 15.604 2.67723C17.3182 4.39143 18.2812 6.71638 18.2812 9.14062Z" fill="white"/>
<path d="M14.5463 16.5122C14.5875 16.5685 14.6335 16.6224 14.6841 16.6739L20.0981 22.088C20.3618 22.3519 20.7195 22.5002 21.0926 22.5003C21.4656 22.5004 21.8234 22.3524 22.0873 22.0887C22.3512 21.825 22.4995 21.4673 22.4996 21.0943C22.4997 20.7212 22.3517 20.3634 22.088 20.0995L16.6739 14.6855C16.6237 14.6346 16.5696 14.5876 16.5122 14.5449C15.9612 15.2976 15.2982 15.9615 14.5463 16.5136V16.5122Z" fill="white"/>
<path fill-rule="evenodd" clip-rule="evenodd" d="M4.21875 9.14062C4.21875 8.95414 4.29283 8.7753 4.42469 8.64344C4.55655 8.51158 4.73539 8.4375 4.92188 8.4375H13.3594C13.5459 8.4375 13.7247 8.51158 13.8566 8.64344C13.9884 8.7753 14.0625 8.95414 14.0625 9.14062C14.0625 9.32711 13.9884 9.50595 13.8566 9.63781C13.7247 9.76967 13.5459 9.84375 13.3594 9.84375H4.92188C4.73539 9.84375 4.55655 9.76967 4.42469 9.63781C4.29283 9.50595 4.21875 9.32711 4.21875 9.14062Z" fill="white"/>
</g>
<defs>
<clipPath id="clip0_139_57">
<rect width="22.5" height="22.5" fill="white"/>
</clipPath>
</defs>
</svg>
