<svg width="23" height="23" viewBox="0 0 23 23" fill="none" xmlns="http://www.w3.org/2000/svg">
<g clip-path="url(#clip0_139_61)">
<path d="M0 4.92188C0 4.36243 0.222237 3.82591 0.617822 3.43032C1.01341 3.03474 1.54993 2.8125 2.10938 2.8125H20.3906C20.9501 2.8125 21.4866 3.03474 21.8822 3.43032C22.2778 3.82591 22.5 4.36243 22.5 4.92188V17.5781C22.5 18.1376 22.2778 18.6741 21.8822 19.0697C21.4866 19.4653 20.9501 19.6875 20.3906 19.6875H2.10938C1.54993 19.6875 1.01341 19.4653 0.617822 19.0697C0.222237 18.6741 0 18.1376 0 17.5781L0 4.92188ZM2.10938 4.21875C1.92289 4.21875 1.74405 4.29283 1.61219 4.42469C1.48033 4.55655 1.40625 4.73539 1.40625 4.92188V17.5781C1.40625 17.7646 1.48033 17.9434 1.61219 18.0753C1.74405 18.2072 1.92289 18.2812 2.10938 18.2812H20.3906C20.5771 18.2812 20.7559 18.2072 20.8878 18.0753C21.0197 17.9434 21.0938 17.7646 21.0938 17.5781V4.92188C21.0938 4.73539 21.0197 4.55655 20.8878 4.42469C20.7559 4.29283 20.5771 4.21875 20.3906 4.21875H2.10938Z" fill="white"/>
<path d="M2.8125 6.32812C2.8125 6.14164 2.88658 5.9628 3.01844 5.83094C3.1503 5.69908 3.32914 5.625 3.51562 5.625H7.73438C7.92086 5.625 8.0997 5.69908 8.23156 5.83094C8.36342 5.9628 8.4375 6.14164 8.4375 6.32812C8.4375 6.51461 8.36342 6.69345 8.23156 6.82531C8.0997 6.95717 7.92086 7.03125 7.73438 7.03125H4.21875V10.5469C4.21875 10.7334 4.14467 10.9122 4.01281 11.0441C3.88095 11.1759 3.70211 11.25 3.51562 11.25C3.32914 11.25 3.1503 11.1759 3.01844 11.0441C2.88658 10.9122 2.8125 10.7334 2.8125 10.5469V6.32812ZM19.6875 16.1719C19.6875 16.3584 19.6134 16.5372 19.4816 16.6691C19.3497 16.8009 19.1709 16.875 18.9844 16.875H14.7656C14.5791 16.875 14.4003 16.8009 14.2684 16.6691C14.1366 16.5372 14.0625 16.3584 14.0625 16.1719C14.0625 15.9854 14.1366 15.8066 14.2684 15.6747C14.4003 15.5428 14.5791 15.4688 14.7656 15.4688H18.2812V11.9531C18.2812 11.7666 18.3553 11.5878 18.4872 11.4559C18.6191 11.3241 18.7979 11.25 18.9844 11.25C19.1709 11.25 19.3497 11.3241 19.4816 11.4559C19.6134 11.5878 19.6875 11.7666 19.6875 11.9531V16.1719Z" fill="white"/>
</g>
<defs>
<clipPath id="clip0_139_61">
<rect width="22.5" height="22.5" fill="white"/>
</clipPath>
</defs>
</svg>
