<svg width="400" height="400" viewBox="0 0 400 400" fill="none" xmlns="http://www.w3.org/2000/svg">
<circle cx="200" cy="200" r="200" fill="white"/>
<path d="M270.402 343.483L127.322 349.469C126.188 349.516 125.242 348.612 125.238 347.477L124.246 52.2503C124.242 51.159 125.102 50.267 126.193 50.2477C133.334 50.1216 158.499 49.7403 175.524 50.2842C191.171 50.784 200.051 51.4349 215.424 52.5618L216.249 52.6222C228.246 53.5014 245.152 55.1091 253.269 55.8995C255.031 56.071 255.77 58.3613 254.615 59.7025C253.74 60.7177 252.914 61.8462 252.45 62.9097C251.681 64.6695 251.475 67.2262 251.432 68.9613C251.406 70.0256 252.279 70.8591 253.344 70.8591H262.003L290.159 74.6L310.916 79.0241C312.419 79.3445 313.014 81.1701 311.989 82.3148L299.244 96.5389C299.22 96.5648 299.201 96.5873 299.18 96.6146C298.784 97.1169 294.533 102.636 296.192 105.93C297.489 108.506 302.458 109.832 303.529 110.091C303.667 110.124 303.805 110.139 303.948 110.139H323.819C324.938 110.139 325.84 111.051 325.82 112.17C325.589 125.101 324.348 196.924 324.348 245.278C324.348 264.955 320.112 295.147 319.837 297.085C319.827 297.153 319.817 297.208 319.8 297.274C319.382 298.901 313.317 321.876 301.723 331.319C292.247 339.037 272.472 343.096 270.681 343.451C270.584 343.47 270.501 343.479 270.402 343.483Z" fill="#385787" stroke="white" stroke-width="4"/>
<path d="M215.243 345.815C215.243 345.815 230.14 344.094 238.874 340.671C252.411 335.367 258.71 329.315 268.539 319.161C281.908 305.349 292.482 277.52 293.142 275.761C293.165 275.701 293.183 275.642 293.2 275.581L314.795 194.309L325.353 110.606" stroke="white" stroke-width="6" stroke-linecap="round"/>
<path d="M125.746 349.088L182.012 345.817C182.042 345.816 182.072 345.815 182.103 345.814C183.014 345.801 197.413 345.553 206.191 343.009C221.166 338.669 228.132 332.138 239.375 321.967C257.471 305.596 271.276 269.849 271.549 269.137C271.558 269.115 271.549 269.141 271.556 269.118C271.804 268.394 288.274 220.269 298.201 189.165C308.017 158.409 322.335 110.138 322.335 110.138" stroke="white" stroke-width="6" stroke-linecap="round"/>
<path d="M126.752 348.62C126.752 348.62 157.647 349.962 176.025 344.412C187.218 341.032 193.869 338.952 203.176 332.254C215.746 323.207 226.904 301.709 227.298 300.945C227.311 300.921 227.315 300.912 227.326 300.887L260.967 228.038C260.986 227.997 261 227.965 261.016 227.923C261.52 226.605 271.142 201.441 278.091 185.424C291.109 155.417 315.297 110.138 315.297 110.138" stroke="white" stroke-width="6" stroke-linecap="round"/>
<path d="M126.752 348.153C126.752 348.153 145.331 348.661 156.416 345.347C165.027 342.773 169.968 340.783 177.031 335.527C183.334 330.838 185.99 327.19 190.606 321.031C194.467 315.879 199.035 307.251 199.598 306.178C199.637 306.104 199.671 306.029 199.7 305.95L215.242 263.983L238.363 206.953C238.368 206.94 238.369 206.938 238.374 206.925C238.541 206.537 244.138 193.517 248.426 185.424C256.308 170.55 271.994 149.25 272.545 148.503C272.562 148.479 272.569 148.471 272.588 148.448L303.23 110.606" stroke="white" stroke-width="6" stroke-linecap="round"/>
<path d="M127.255 348.153C127.255 348.153 138.37 347.358 144.852 344.88C150.646 342.665 153.671 340.722 158.427 336.93C164.364 332.197 167.226 328.805 170.997 322.434C174.216 316.996 176.857 307.624 177.022 307.032C177.028 307.012 177.033 306.993 177.038 306.973L184.069 278.011L196.635 233.603C196.638 233.593 196.638 233.593 196.64 233.583C196.726 233.261 200.573 218.882 204.684 210.207C208.691 201.751 212.111 197.54 217.253 189.632C226.186 175.894 231.527 168.338 241.89 155.497C252.08 142.87 269.693 124.534 270.04 124.172C270.051 124.161 270.051 124.161 270.062 124.15L307.755 86.7579" stroke="white" stroke-width="6" stroke-linecap="round"/>
<path d="M126.752 347.685C126.752 347.685 136.728 346.22 142.338 343.477C148.503 340.463 151.854 337.985 155.914 332.722C159.867 327.597 160.88 323.894 162.45 317.758C163.848 312.294 163.956 303.485 163.958 303.266C163.958 303.26 163.958 303.259 163.958 303.252V270.07C163.958 270.065 163.958 270.066 163.958 270.06C163.957 269.878 163.836 254.511 165.467 244.811C166.46 238.901 167.381 235.64 168.986 229.847C172.567 216.929 174.778 209.579 181.053 197.582C187.968 184.362 203.282 166.252 203.671 165.793C203.683 165.779 203.673 165.791 203.685 165.776C204.061 165.306 221.034 144.148 233.343 131.649C248.187 116.573 274.162 95.8998 275.05 95.1936C275.079 95.1713 275.087 95.1631 275.114 95.1393L296.191 76.4706" stroke="white" stroke-width="6" stroke-linecap="round"/>
<path d="M126.752 346.75C126.752 346.75 140.351 345.538 145.858 340.203C149.385 336.786 150.295 333.947 151.891 329.448C153.609 324.608 153.589 321.592 153.89 316.556C153.898 316.424 153.893 316.289 153.875 316.158L144.37 247.76C144.356 247.664 144.35 247.566 144.351 247.47C144.461 231.884 145.435 222.803 150.383 207.869C153.271 199.154 159.886 186.477 160.406 185.486C160.43 185.44 160.441 185.42 160.469 185.376C161.34 184.001 180.686 153.52 196.136 135.857C208.934 121.227 217.18 113.822 231.834 100.786C245.209 88.8885 267.532 71.7943 267.532 71.7943" stroke="white" stroke-width="6" stroke-linecap="round"/>
<path d="M127.255 345.348C127.255 345.348 133.244 342.476 136.305 339.736C140.624 335.87 142.428 332.859 144.35 327.578C146.18 322.548 145.907 314.272 145.863 313.198C145.86 313.119 145.851 313.043 145.838 312.965L141.333 286.429L127.768 232.225C127.761 232.199 127.756 232.176 127.75 232.149C127.652 231.672 126.623 226.627 126.249 223.301C125.102 213.076 127.685 197.093 127.756 196.656C127.758 196.642 127.757 196.649 127.759 196.635C127.822 196.2 129.53 184.38 131.78 177.007C134.737 167.318 137.6 162.216 142.338 153.159C149.16 140.121 153.727 133.051 162.953 121.362C171.926 109.992 178.235 104.54 188.595 94.24C198.915 83.9797 215.426 69.183 217.935 66.9403C218.156 66.7426 218.319 66.5091 218.434 66.2359L223.79 53.5578" stroke="white" stroke-width="6" stroke-linecap="round"/>
<path d="M125.243 65.7155C125.243 65.7155 139.019 64.6144 147.868 64.3127C165.336 63.7172 175.151 64.5901 192.616 65.2479C214.436 66.0698 248.425 68.5212 248.425 68.5212" stroke="white" stroke-width="6" stroke-linecap="round"/>
<path d="M110.002 350L110.002 50.4442" stroke="#385787" stroke-width="8" stroke-linecap="round"/>
<path d="M350 250.547L50.0001 247.337" stroke="#385787" stroke-width="8" stroke-linecap="round"/>
</svg>
